# xmcd CD database file
#
# Track frame offsets:
#	150
#	17361
#	35353
#	49763
#	62525
#	78424
#	97737
#	128736
#	141911
#	161248
#	178015
#
# Disc length: 2562 seconds
#
# Revision: 6
# Processed by: cddbd v1.5.2PL0 Copyright (c) Steve Scherf et al.
# Submitted via: CDex 1.51
#
DISCID=840a000b
DTITLE=Buddy And Julie Miller - Buddy And Julie Miller
DYEAR=2001
DGENRE=Country
TTITLE0=Keep Your Distance
TTITLE1=The River's Gonna Run
TTITLE2=You Make My Heart Beat Too Fast
TTITLE3=Forever Has Come To An End
TTITLE4=Little Darlin
TTITLE5=Rock Salt And Nails
TTITLE6=Dirty Water
TTITLE7=Wallflower
TTITLE8=That's Just How She Cries
TTITLE9=Rachel
TTITLE10=Holding Up The Sky
EXTD=YEAR: 2001
EXTT0=
EXTT1=
EXTT2=
EXTT3=
EXTT4=
EXTT5=
EXTT6=
EXTT7=
EXTT8=
EXTT9=
EXTT10=
PLAYORDER=
